<?xml version="1.0" encoding="UTF-8"?>
<svg width="800" height="800" viewBox="0 0 800 800" xmlns="http://www.w3.org/2000/svg">
  <defs>
    <pattern id="growth-pattern" patternUnits="userSpaceOnUse" width="200" height="200">
      <!-- Growth arrows -->
      <path d="M20,180 L60,140 L100,160 L140,120 L180,80" stroke="#4f46e5" stroke-width="2" fill="none" stroke-linecap="round" />
      <path d="M180,80 L170,90 M180,80 L170,70" stroke="#4f46e5" stroke-width="2" fill="none" stroke-linecap="round" />
      
      <!-- Success stars -->
      <path d="M40,40 L45,30 L50,40 L60,42 L52,50 L55,60 L45,55 L35,60 L38,50 L30,42 Z" fill="#14b8a6" />
      <path d="M140,40 L143,33 L146,40 L153,41 L147,47 L149,54 L142,50 L135,54 L137,47 L131,41 Z" fill="#14b8a6" />
      <path d="M90,90 L95,80 L100,90 L110,92 L102,100 L105,110 L95,105 L85,110 L88,100 L80,92 Z" fill="#4f46e5" />
      
      <!-- Growth bars -->
      <rect x="20" y="120" width="10" height="40" fill="#14b8a6" rx="2" />
      <rect x="40" y="100" width="10" height="60" fill="#4f46e5" rx="2" />
      <rect x="60" y="110" width="10" height="50" fill="#14b8a6" rx="2" />
      <rect x="80" y="80" width="10" height="80" fill="#4f46e5" rx="2" />
      <rect x="100" y="60" width="10" height="100" fill="#14b8a6" rx="2" />
      
      <!-- Connection dots -->
      <circle cx="20" cy="180" r="3" fill="#4f46e5" />
      <circle cx="60" cy="140" r="3" fill="#14b8a6" />
      <circle cx="100" cy="160" r="3" fill="#4f46e5" />
      <circle cx="140" cy="120" r="3" fill="#14b8a6" />
      <circle cx="180" cy="80" r="3" fill="#4f46e5" />
    </pattern>
  </defs>
  
  <!-- Apply the pattern to the entire SVG -->
  <rect width="800" height="800" fill="url(#growth-pattern)" />
</svg>
