<?xml version="1.0" encoding="UTF-8"?>
<svg xmlns="http://www.w3.org/2000/svg" viewBox="0 0 128 128">
  <path fill="#1384C8" d="M40.335 78.188H38.65v-9.65h1.685v9.65zm.897-9.65h1.685v9.65h-1.685v-9.65zm4.488 0h1.685v7.968h2.384v1.683H45.72v-9.65zm8.156 0h1.685v7.968h2.384v1.683h-4.068v-9.65zm6.545 0h4.083v1.683h-2.398v2.365h2.196v1.683h-2.196v2.235h2.398v1.683h-4.083v-9.65zm6.88 9.65v-9.65h1.685v9.65h-1.685zm3.495-9.65h4.083v1.683H77.3v2.365h2.196v1.683H77.3v2.235h2.398v1.683h-4.083v-9.65zm6.88 9.65v-9.65h1.685v7.967h2.399v1.683h-4.084zm5.145-5.043c0-1.576.438-2.774 1.318-3.596.88-.82 2.027-1.232 3.428-1.232 1.36 0 2.472.392 3.336 1.174.864.783 1.296 1.942 1.296 3.478 0 1.09-.2 1.998-.599 2.723-.4.725-.968 1.284-1.702 1.678-.734.393-1.565.59-2.49.59-1.386 0-2.5-.39-3.342-1.174-.842-.783-1.263-1.943-1.263-3.478v-.163h.018zm1.702.177c0 1.09.24 1.91.72 2.46.48.55 1.156.824 2.027.824.89 0 1.574-.27 2.054-.809.48-.54.72-1.377.72-2.51 0-1.074-.24-1.887-.72-2.443-.48-.555-1.15-.833-2.009-.833-.865 0-1.539.275-2.027.825-.48.55-.72 1.376-.72 2.475v.01h-.045zm8.965 4.866v-9.65h1.685v9.65h-1.685zm3.478-9.65h4.098v1.683h-2.413v2.365h2.196v1.683h-2.196v3.919h-1.685v-9.65zm5.966 9.65v-9.65h1.685v9.65h-1.685zm3.479-9.65h1.685v7.968h2.398v1.683h-4.083v-9.65zm5.966 9.65v-9.65h1.685v9.65h-1.685zm3.495-9.65h4.068v1.683h-2.383v2.365h2.196v1.683h-2.196v2.235h2.383v1.683h-4.068v-9.65zm6.88 9.65v-9.65h1.685v7.967h2.398v1.683h-4.083zM39.95 81.16h2.148l4.074 10.928h-2.27l-.813-2.287H38.9l-.845 2.287h-2.196L39.95 81.16zm2.665 6.916l-1.36-3.919-1.426 3.919h2.786zm4.282-6.916h2.383l3.152 7.06 3.152-7.06h2.352l-4.604 10.928h-1.846l-4.589-10.928zm12.963 0h7.55v1.982h-5.023v2.49h4.59v1.982h-4.59v2.491h5.023v1.983h-7.55V81.16zm9.572 0h4.38c.994 0 1.764.146 2.312.437.548.291.964.696 1.25 1.214.286.518.429 1.107.429 1.766 0 .621-.12 1.175-.36 1.663-.24.487-.599.888-1.078 1.2-.48.313-1.058.487-1.734.523l3.428 4.125h-2.81l-3.062-4.013h-.228v4.013h-2.527V81.16zm2.527 4.933h1.188c.767 0 1.314-.115 1.64-.345.327-.23.49-.606.49-1.13 0-.34-.077-.622-.23-.846-.153-.224-.368-.39-.645-.5-.277-.11-.697-.164-1.26-.164h-1.183v2.985zm8.515-4.933h2.527v8.946h4.452v1.982h-6.979V81.16zm8.514 0h2.527v10.928h-2.527V81.16zm4.704 0h2.148l4.074 10.928h-2.27l-.813-2.287h-4.19l-.845 2.287h-2.195L94.692 81.16zm2.665 6.916l-1.36-3.919-1.426 3.919h2.786zm4.282-6.916h2.527v8.946h4.452v1.982h-6.979V81.16zm8.514 0h7.55v1.982h-5.023v2.49h4.59v1.982h-4.59v2.491h5.023v1.983h-7.55V81.16zm9.165 0h4.604c1.019 0 1.825.11 2.419.328.594.218 1.052.545 1.374.982.322.437.483.975.483 1.615 0 .536-.12.996-.36 1.38-.24.383-.576.687-1.01.91.61.192 1.063.465 1.36.82.297.354.445.803.445 1.347 0 .51-.114.982-.344 1.414-.23.433-.547.78-.95 1.04-.403.26-.905.442-1.506.546-.601.104-1.303.156-2.108.156h-4.407V81.16zm2.527 4.452h1.335c.72 0 1.22-.033 1.503-.1.283-.067.495-.187.637-.359.142-.173.213-.403.213-.692 0-.27-.065-.491-.196-.665-.13-.173-.318-.297-.563-.37-.245-.073-.75-.11-1.517-.11h-1.412v2.296zm0 4.494h1.54c.667 0 1.13-.024 1.39-.073.36-.073.64-.2.84-.382.2-.182.3-.427.3-.737 0-.27-.07-.498-.213-.683-.142-.185-.345-.318-.608-.4-.263-.083-.736-.124-1.42-.124h-1.829v2.399z"></path>
  <path fill="#1384C8" d="M64.165 29.457c27.642 0 50.04 22.398 50.04 50.04 0 27.643-22.398 50.041-50.04 50.041-27.643 0-50.041-22.398-50.041-50.04 0-27.643 22.398-50.041 50.04-50.041zm0-3.352c-29.486 0-53.393 23.907-53.393 53.393 0 29.485 23.907 53.392 53.393 53.392 29.485 0 53.392-23.907 53.392-53.392 0-29.486-23.907-53.393-53.392-53.393z"></path>
  <path fill="#1384C8" d="M78.044 22.064l-4.206 77.205-10.728-5.07-10.641 4.994-4.264-77.129 29.839 0zM64.165 29.457c-27.642 0-50.041 22.398-50.041 50.04 0 27.643 22.399 50.041 50.041 50.041 27.642 0 50.04-22.398 50.04-50.04 0-27.643-22.398-50.041-50.04-50.041z"></path>
</svg>
